<svg width="20" height="23" viewBox="0 0 20 23" fill="none" xmlns="http://www.w3.org/2000/svg">
<path d="M6.42857 6.42857V8.57143H13.5714V6.42857C13.5714 4.45536 11.9732 2.85714 10 2.85714C8.02679 2.85714 6.42857 4.45536 6.42857 6.42857ZM3.57143 8.57143V6.42857C3.57143 2.87946 6.45089 0 10 0C13.5491 0 16.4286 2.87946 16.4286 6.42857V8.57143H17.1429C18.7188 8.57143 20 9.85268 20 11.4286V20C20 21.5759 18.7188 22.8571 17.1429 22.8571H2.85714C1.28125 22.8571 0 21.5759 0 20V11.4286C0 9.85268 1.28125 8.57143 2.85714 8.57143H3.57143Z" fill="#ECB365"/>
</svg>
